PathFileType	4	(X/Y/Z)	Patient4_TMGait_0pt7_01_left_11.trc.trc
DataRate	CameraRate	NumFrames	NumMarkers	Units	OrigDataRate	OrigDataStartFrame	OrigNumFrames
88.050314465409	88.050314465409	4	33	mm	88.050314465409	124	       141
Frame#	Time	Sacral			L.Shoulder			Chest			R.Shoulder			Neck			R.ASIS			L.ASIS			R.Thigh.Superior			R.Thigh.Lateral			R.Thigh.Inferior			R.Patella			L.Thigh.Superior			L.Thigh.Lateral			L.Thigh.Inferior			L.Patella			L.Shank.Superior			L.Shank.Lateral			L.Shank.Inferior			R.Shank.Superior			R.Shank.Lateral			R.Shank.Inferior			R.Heel			R.Midfoot.Superior			R.Midfoot.Lateral			R.Toe			L.Heel			L.Midfoot.Lateral			L.Midfoot.Superior			L.Toe			L.Elbow			L.Wrist			R.Elbow			R.Wrist			
		X1	Y1	Z1	X2	Y2	Z2	X3	Y3	Z3	X4	Y4	Z4	X5	Y5	Z5	X6	Y6	Z6	X7	Y7	Z7	X8	Y8	Z8	X9	Y9	Z9	X10	Y10	Z10	X11	Y11	Z11	X12	Y12	Z12	X13	Y13	Z13	X14	Y14	Z14	X15	Y15	Z15	X16	Y16	Z16	X17	Y17	Z17	X18	Y18	Z18	X19	Y19	Z19	X20	Y20	Z20	X21	Y21	Z21	X22	Y22	Z22	X23	Y23	Z23	X24	Y24	Z24	X25	Y25	Z25	X26	Y26	Z26	X27	Y27	Z27	X28	Y28	Z28	X29	Y29	Z29	X30	Y30	Z30	X31	Y31	Z31	X32	Y32	Z32	X33	Y33	Z33	

124	14.046928571429	832.162245812375	1000.225717007364	497.824256824281	1004.426468860737	1419.082536845260	297.185718042403	1123.905027346724	1342.806028527353	443.012542007932	1069.893577246700	1428.076703892076	621.742957657159	1030.977313035350	1479.117020974336	451.472270822903	1060.126639418682	929.173718271994	601.558232186071	1033.058646423715	942.432406002136	325.886976161893	1050.006765339506	716.096919284590	579.682181292490	941.335271491694	627.810062586879	642.847756409280	997.986037346495	558.487295379003	563.692490925388	974.700979115319	474.444260105436	568.926773192865	1107.702329124023	766.952659401044	365.463794924939	1065.836810027125	638.718566270202	282.759397461929	1166.170464872492	580.885062954430	348.563330508743	1191.282901215730	513.798526907730	344.781210626850	1175.485016434706	440.755569214564	331.016365085374	1110.174977861458	311.307260587581	279.275320204374	1197.043293509746	212.439745453737	334.530681211823	933.399373940088	391.641904253537	576.946736707555	846.473258209405	301.481331069529	639.438401422663	872.419459849326	200.561717128938	577.403741478754	719.083082764440	44.972750682805	544.701887984711	889.585628668450	96.546315206379	588.416153887757	798.323258183032	37.292366452967	623.166236708914	1007.127865153579	39.383339797652	623.634033309111	1112.140672544808	37.681467462386	369.990474761326	1187.249571270055	41.273227771909	290.972343472691	1259.581266228968	114.447707497467	315.036616095622	1392.710896760078	80.746822222121	290.868505635567	810.524782390441	1130.651487885260	209.446622485614	729.363258866779	883.765615918455	246.777802940450	1253.118566578040	1153.968493480970	720.656973188203	1392.658451255115	1316.153929553439	598.643840726451	
125	14.058285714286	833.265120875972	998.894017523707	494.566221266351	1004.354618567858	1418.475634040424	295.120675617184	1123.893790392648	1342.590126401940	441.121609625939	1068.918963511152	1427.066269120143	619.932140329681	1030.301885448801	1478.315525250340	449.595462292607	1061.347315304842	927.837887596059	599.023110482143	1034.945222850985	941.287269868505	323.411998757179	1050.494339870252	714.553325275698	577.635539097713	941.117442851047	626.792036360732	640.743818490656	997.712316868165	556.865849889175	562.005151398389	973.636389540109	472.304159467740	567.220847884650	1109.018485080560	764.551694035330	362.376995253947	1063.834187590793	636.144536129819	281.547310781299	1164.845965636951	578.128570426315	346.110411614648	1188.099665936728	510.378483120226	343.417733109603	1172.372589800618	437.422310858394	329.927231149712	1105.927539839490	308.145031717417	279.429273940143	1192.231025200051	209.091613186026	334.839158178529	930.936072812702	390.128780832960	575.621394297840	842.523691736601	301.622244447299	638.646545800874	866.554565108106	200.078811253735	576.993454237675	711.079254250257	45.919237393175	545.069935327056	881.909203708037	96.625905775661	588.543351228393	790.419461926393	37.628990557206	623.424241046675	999.214261255981	39.093218083218	623.767153836804	1104.790322147670	37.171439674032	371.761813323630	1179.281974545830	39.044332671398	291.970141387204	1253.797047037586	109.860942278320	315.899877562741	1385.972270831405	72.471474114221	290.470499165081	809.001250095339	1131.551653479721	208.197835119269	726.761664767215	885.031494103149	246.357470392298	1254.045941319267	1154.136647726003	718.272432677419	1389.813876604540	1319.665286574884	596.537726298881	
126	14.069642857143	834.268341218310	997.820264441017	491.263710296525	1004.417493877616	1417.998978525734	292.941701314525	1123.969433682187	1342.480405311118	439.172261913285	1068.072918225479	1426.211318645888	618.090688590458	1029.792080396677	1477.730481322114	447.560739961307	1062.503315997928	926.675237601086	596.366248814072	1036.716122342766	940.508787493555	320.862395369187	1051.204953767885	713.222122821762	575.430705426084	941.278176924136	625.842906153237	638.467738824169	998.015226060796	555.355775342922	560.210203737264	973.283151131632	470.065904178261	565.512728985437	1110.450267085490	762.784765110314	359.063207965603	1062.161188956142	634.270418037352	280.037043421437	1163.792436007811	576.049480508308	343.469235122830	1185.291891928987	507.691737643566	341.886000888685	1169.610275226952	434.708325393553	328.711538800434	1102.114771714893	305.751862674857	278.890656203106	1187.324166033881	206.281613323013	334.836322393640	928.968531500796	388.661915374294	574.256708074618	838.920905919423	301.986797658869	637.750999583426	860.956004460387	199.788392726541	576.574709033428	703.120725083113	47.344893311572	545.478038589355	874.387942333201	96.752004554038	588.683161196391	782.558423214825	38.200484824454	623.676302910606	991.326503462042	38.780801946809	623.897549116086	1096.930779328446	37.050162023504	372.848542554654	1171.019090946868	37.334691169584	292.495922239418	1247.599057375361	105.877456208061	316.533060921604	1378.897872784031	64.943408171586	290.206332166571	808.419756806998	1131.844621759331	206.708258224184	725.404608342950	885.571294893536	245.457252753721	1253.955107407639	1153.437757684239	716.224645510055	1386.792100423533	1321.756726922820	594.865880119322	
127	14.081000000000	835.161617233053	997.072207403747	487.963922956383	1004.607997265219	1417.720402552627	290.686749272655	1124.126386337864	1342.516633410565	437.183982861658	1067.396866694248	1425.582067223460	616.232525485647	1029.464557739193	1477.425238339193	445.404453772246	1063.544496639859	925.763023268400	593.584381978019	1038.309241135676	940.160369176374	318.222506149679	1052.121027306131	712.184964257485	573.057298755750	941.850484630096	625.012624853294	636.046125108326	998.945577727623	554.025309178171	558.327701603791	973.739810303019	467.775448963884	563.886971692092	1111.928284673486	761.734548077166	355.562187263225	1060.872125572062	633.171505877256	278.196937674551	1162.948761789749	574.674694703702	340.663207767718	1182.845394504578	505.789380457915	340.154902783078	1167.175839827374	432.663983071918	327.359709916987	1098.737301687161	304.154095010538	277.684140666673	1182.380099315741	204.079749047931	334.546129413491	927.564025184926	387.302165603260	572.907862820674	835.713937098687	302.661584915860	636.772813060740	855.692942338626	199.773275056487	576.175201459425	695.260202922812	49.392279114908	545.905791064764	867.088945000965	96.952281238973	588.848294717743	774.765641467940	39.097294312154	623.908853293072	983.465457327004	38.458832615253	624.011658212243	1088.842002313661	37.194902706944	373.331943086089	1162.717014294898	36.130571406279	292.618646092592	1241.086930567241	102.670363042029	316.927601049630	1371.640971591083	58.628962250636	290.055779281804	808.781004456906	1131.576715660800	204.970629716633	725.318252328786	885.406237597834	244.031045875633	1252.829912479756	1151.876084639164	714.506671749552	1383.721183439768	1322.380302347894	593.612829877270	
